M48
; DRILL file {KiCad 5.1.5+dfsg1-2build2} date Fri 03 Dec 2021 04:32:08 PM EST
; FORMAT={-:-/ absolute / inch / decimal}
; #@! TF.CreationDate,2021-12-03T16:32:08-05:00
; #@! TF.GenerationSoftware,Kicad,Pcbnew,5.1.5+dfsg1-2build2
; #@! TF.FileFunction,Plated,1,2,PTH
FMAT,2
INCH
T1C0.0315
T2C0.0315
T3C0.0354
T4C0.0394
T5C0.0500
T6C0.0512
T7C0.0630
T8C0.1260
%
G90
G05
T1
X6.6988Y-3.7665
X6.6988Y-4.1665
X5.7738Y-3.3415
X5.7738Y-3.6415
X4.9238Y-3.7165
X5.3238Y-3.7165
X4.9238Y-3.3415
X5.3238Y-3.3415
X5.6488Y-2.4665
X6.0488Y-2.4665
X5.4988Y-3.8165
X5.4988Y-3.9165
X5.4988Y-4.0165
X5.4488Y-3.1915
X5.5488Y-3.1915
X5.6488Y-3.1915
X5.8738Y-3.7415
X5.8738Y-4.0415
X6.1738Y-3.5415
X6.1738Y-3.6415
X6.1738Y-3.7415
X6.1738Y-3.8415
X6.4738Y-3.5415
X6.4738Y-3.6415
X6.4738Y-3.7415
X6.4738Y-3.8415
X5.6738Y-3.7415
X5.6738Y-4.0415
X5.7238Y-2.9665
X5.8238Y-2.9665
X5.9238Y-2.9665
X4.9238Y-3.5915
X5.3238Y-3.5915
X5.4988Y-3.3915
X5.4988Y-3.4915
X5.4988Y-3.5915
X5.6738Y-3.3415
X5.6738Y-3.6415
X4.9254Y-4.0915
X5.0238Y-4.0915
X4.9238Y-3.9665
X5.3238Y-3.9665
X4.9238Y-3.0915
X5.3238Y-3.0915
X5.7738Y-3.1181
X5.7738Y-3.2165
X5.8738Y-3.3415
X5.8738Y-3.6415
X6.7488Y-3.3915
X6.7488Y-3.4915
X6.7488Y-3.5915
X4.9238Y-3.2165
X5.3238Y-3.2165
X4.9238Y-3.4665
X5.3238Y-3.4665
X6.1738Y-3.2665
X6.5738Y-3.2665
X6.9238Y-3.5431
X6.9238Y-3.6415
X4.9238Y-3.8415
X5.3238Y-3.8415
X6.1738Y-3.0165
X6.5738Y-3.0165
X5.7738Y-3.7415
X5.7738Y-4.0415
X6.1738Y-3.1415
X6.5738Y-3.1415
X6.1738Y-3.3915
X6.5738Y-3.3915
T2
X6.8488Y-4.1665
X6.8488Y-3.7665
T3
X6.8488Y-2.6165
X6.8488Y-2.7165
X6.2988Y-2.6165
X6.2988Y-2.7165
X6.0238Y-2.6165
X6.0238Y-2.7165
X6.5738Y-2.6165
X6.5738Y-2.7165
X5.7488Y-2.6165
X5.7488Y-2.7165
T4
X7.2835Y-3.2601
X7.2835Y-3.3691
X7.2835Y-3.4782
X7.2835Y-3.5872
X7.2835Y-3.6963
X7.2835Y-3.8053
X7.2835Y-3.9144
X7.2835Y-4.0234
X7.3953Y-3.3146
X7.3953Y-3.4236
X7.3953Y-3.5327
X7.3953Y-3.6418
X7.3953Y-3.7508
X7.3953Y-3.8599
X7.3953Y-3.9689
X4.9738Y-2.5165
X4.9738Y-2.8157
T5
X5.4238Y-2.4915
X5.4238Y-2.6795
X5.4238Y-2.8665
T6
X4.5557Y-3.7915
X4.5557Y-3.9915
X4.5557Y-3.2665
X4.5557Y-3.4665
T7
X5.9238Y-4.2665
X5.5488Y-4.2665
X6.2892Y-4.2665
T8
X7.3394Y-2.9862
X7.3394Y-4.2973
T0
M30
